<svg width="120" height="53" viewBox="0 0 120 53" fill="none" xmlns="http://www.w3.org/2000/svg">
<path d="M49.8539 26.7368C49.9448 27.7909 49.5631 28.8632 48.7271 29.6266C47.891 30.3899 46.8006 30.6807 45.7646 30.5171C45.6737 29.463 46.0554 28.3907 46.8914 27.6274C47.7275 26.864 48.818 26.5732 49.8539 26.7368ZM43.0384 11.9425C42.5477 12.9603 42.584 14.0872 43.0384 15.0323C44.0743 14.8142 44.9831 14.1417 45.4738 13.1239C45.9645 12.1061 45.9282 10.9793 45.4738 10.0342C44.456 10.2523 43.5291 10.9248 43.0384 11.9425ZM40.4394 11.3973C41.2209 10.3068 41.4935 8.88919 41.0937 7.52608C40.6939 6.1448 39.6761 5.12701 38.4402 4.63629C37.6587 5.72678 37.386 7.14441 37.7859 8.50752C38.1857 9.8888 39.2035 10.9066 40.4394 11.3973ZM44.0017 38.9321C42.584 39.0229 41.3663 39.7863 40.6212 40.8768C41.5117 41.8582 42.8203 42.4398 44.2379 42.3489C45.6556 42.258 46.8733 41.4947 47.6184 40.4042C46.7279 39.4228 45.4193 38.8412 44.0017 38.9321ZM47.8002 32.8617C48.8361 32.4982 49.8903 32.2074 50.9626 32.0256L50.8172 31.226C48.7089 31.6076 46.6552 32.3164 44.765 33.2979C44.3652 30.2263 45.1467 27.0458 46.946 24.5195L46.2917 24.0469C44.3106 26.8277 43.4928 30.3354 44.0198 33.7159C41.748 35.0063 39.7306 36.6966 38.113 38.714L38.731 39.2229C40.8938 36.533 43.8199 34.4247 47.0914 33.1343C46.637 33.8431 46.4371 34.7337 46.6006 35.6243C46.8006 36.7511 47.4912 37.6416 48.4181 38.1324C49.1269 37.3509 49.4723 36.2604 49.2723 35.1517C49.1088 34.1884 48.5454 33.3706 47.8002 32.8617ZM21.883 46.5655C21.9557 45.0751 21.3196 43.712 20.2654 42.8033C19.1386 43.603 18.3571 44.8934 18.2844 46.3837C18.2117 47.874 18.8478 49.2371 19.9019 50.1459C21.0288 49.3462 21.8103 48.0558 21.883 46.5655ZM44.2561 20.83C43.8744 21.3752 43.7654 22.0841 43.9835 22.7747C44.2016 23.4653 44.7286 23.9561 45.3466 24.1923C45.7283 23.6471 45.8373 22.9383 45.6192 22.2476C45.4011 21.557 44.8741 21.0663 44.2561 20.83ZM29.062 16.0319C28.6803 16.5771 28.5713 17.2859 28.7894 17.9766C29.0075 18.6672 29.5345 19.1579 30.1525 19.3942C30.5342 18.849 30.6432 18.1401 30.4251 17.4495C30.207 16.7589 29.68 16.2681 29.062 16.0319ZM14.1951 46.6563C13.2318 46.8744 12.4684 47.5287 12.0868 48.3648C12.7956 48.9463 13.7589 49.2008 14.7403 48.9827C15.7036 48.7646 16.4669 48.1103 16.8486 47.2743C16.1398 46.6927 15.1765 46.4382 14.1951 46.6563ZM11.4325 42.9305C10.7237 42.1308 9.68771 41.6401 8.5427 41.6946C7.3977 41.7491 6.39809 42.3489 5.79833 43.2213C6.50714 44.021 7.5431 44.5117 8.68811 44.4572C9.83312 44.4027 10.8327 43.8029 11.4325 42.9305ZM39.6761 35.5879C40.5303 35.0063 41.021 34.0794 41.0755 33.1161C40.1668 32.8253 39.1308 32.9344 38.2584 33.516C37.5678 33.9885 37.1316 34.6792 36.9499 35.4243C36.7499 33.1525 36.7318 30.8806 36.9135 28.5906C38.1857 28.7905 39.5307 28.4634 40.5848 27.5547C41.6753 26.6096 42.2023 25.2465 42.1296 23.9015C40.8029 23.6471 39.3853 23.9742 38.2948 24.9193C37.7677 25.3737 37.386 25.9189 37.1316 26.5187C37.1316 26.5187 37.1316 26.5187 37.1316 26.5005C37.4224 24.2832 37.9313 22.0841 38.6038 19.9394C39.6761 18.7399 40.9847 17.6858 42.4386 16.8679C42.6567 17.7039 43.1838 18.4673 43.9835 18.9398C44.9286 19.5032 46.0372 19.5578 46.9823 19.1943C46.8551 18.1765 46.2917 17.2314 45.3466 16.668C44.8377 16.359 44.2925 16.2136 43.7472 16.1954C45.2376 15.523 46.8551 15.0504 48.509 14.8687L48.4181 14.069C44.9467 14.487 41.6571 15.9955 39.1672 18.231C40.4031 14.8142 42.1115 11.5609 44.2379 8.58022L42.9839 7.68965C39.5852 12.4514 37.2225 17.9039 36.0593 23.5744C35.714 23.4108 35.3686 23.2472 35.0415 23.0837C35.6776 22.0659 35.8775 20.7936 35.4959 19.5578C35.096 18.2492 34.1146 17.2677 32.9151 16.8316C32.1881 17.8675 31.9336 19.2306 32.3335 20.5392C32.5334 21.1935 32.8969 21.7751 33.3331 22.2476C31.1703 21.1026 29.1347 19.7759 27.3172 17.8312L26.3721 18.7036C29.1529 21.6842 32.3698 23.2836 35.7867 24.883C35.6958 25.3555 35.6231 25.8462 35.5686 26.3188C34.5508 33.8431 35.6231 41.5129 38.6583 48.492L40.0759 47.874C38.4402 44.0937 37.386 40.0952 36.9499 36.0423C37.8222 36.2785 38.8037 36.1513 39.6215 35.5879H39.6761ZM3.79909 32.2074C3.88997 31.335 3.581 30.4263 2.89036 29.772C2.19971 29.1177 1.29098 28.8632 0.418587 28.9905C0.327714 29.8629 0.636684 30.7716 1.32733 31.4259C2.01797 32.0802 2.9267 32.3346 3.79909 32.2074ZM3.30839 24.7921C3.98086 23.7561 4.10807 22.5384 3.74457 21.4479C2.59956 21.5388 1.50909 22.1204 0.836627 23.1564C0.164161 24.1923 0.0369275 25.41 0.400423 26.5005C1.54543 26.4096 2.63593 25.8281 3.30839 24.7921ZM32.3698 46.3655C32.0245 47.5651 32.2789 48.8009 32.9514 49.746C34.0237 49.3098 34.8961 48.4193 35.2596 47.2197C35.6049 46.0202 35.3505 44.7843 34.678 43.8392C33.6057 44.2754 32.7333 45.166 32.3698 46.3655ZM39.6579 45.2023C39.5852 46.0747 39.9305 46.8744 40.5121 47.4378C41.1846 47.0016 41.6753 46.2565 41.748 45.3841C41.8207 44.5117 41.4754 43.712 40.8938 43.1486C40.2213 43.5848 39.7306 44.33 39.6579 45.2023ZM48.1455 23.1564C48.7271 23.9924 49.6358 24.4468 50.5809 24.4831C50.8535 23.5744 50.7263 22.5748 50.1266 21.7387C49.545 20.9027 48.6362 20.4483 47.6911 20.412C47.4185 21.3207 47.5457 22.3203 48.1455 23.1564ZM28.2441 6.01758C27.7716 6.76274 27.6989 7.6533 27.9897 8.43482C28.8076 8.34394 29.5891 7.90775 30.0616 7.14441C30.5342 6.39925 30.6068 5.50868 30.3161 4.72717C29.4982 4.81804 28.7167 5.25424 28.2441 6.01758ZM22.5918 4.90892C23.1189 4.09105 23.1916 3.12779 22.8826 2.27358C21.992 2.36445 21.1378 2.83699 20.6289 3.65486C20.1019 4.47272 20.0292 5.43598 20.3381 6.2902C21.2287 6.19932 22.0829 5.72678 22.5918 4.90892ZM14.2132 6.92631C15.3401 6.58099 16.1761 5.74495 16.5759 4.70899C15.6854 4.07288 14.504 3.85478 13.3772 4.2001C12.2504 4.54542 11.4143 5.38146 11.0145 6.41742C11.905 7.05354 13.0864 7.27163 14.2132 6.92631ZM27.7352 3.16414C28.7167 3.56398 29.7708 3.47311 30.625 2.98239C30.3706 2.03731 29.68 1.21944 28.7167 0.819597C27.7353 0.419752 26.6811 0.510626 25.8269 1.00134C26.0814 1.94643 26.772 2.7643 27.7352 3.16414ZM5.7438 14.5597C6.57984 14.4688 7.28864 14.0145 7.68849 13.342C7.14325 12.7786 6.36173 12.4696 5.52569 12.5423C4.68965 12.615 3.98085 13.0876 3.581 13.76C4.12625 14.3234 4.90777 14.6324 5.7438 14.5597ZM10.5965 10.6158C10.7782 11.5609 11.378 12.3242 12.1777 12.7241C12.7592 12.0516 13.0501 11.1247 12.8683 10.1796C12.7774 9.65253 12.5412 9.19816 12.214 8.81649C15.2855 10.4704 18.5933 11.6699 21.9738 12.3424L22.1374 11.5609C20.738 11.2883 19.3385 10.9066 17.9572 10.4522C20.1746 9.65253 22.2828 8.47117 24.1185 6.99901L23.6096 6.3629C21.5922 7.98045 19.2113 9.23451 16.7213 9.99785C14.2678 9.07093 11.905 7.85323 9.74225 6.41742L9.28788 7.08989C9.88764 7.48973 10.5056 7.8714 11.1235 8.2349C10.6146 8.88919 10.3784 9.7434 10.5601 10.634L10.5965 10.6158ZM4.05354 34.0249C7.41587 35.5334 10.3965 37.6962 12.8319 40.4042L13.4317 39.8771C11.5415 37.7689 9.32423 35.9696 6.85247 34.5519L6.76159 27.2093C7.67032 27.3366 8.63357 27.0639 9.36056 26.3915C10.1057 25.7008 10.4511 24.7376 10.3602 23.7925C9.43327 23.6471 8.43365 23.9015 7.68849 24.5922C7.1796 25.0647 6.87065 25.6463 6.74342 26.2643V24.5195H5.92554L6.03461 34.0794C4.43523 33.2252 2.74495 32.5345 0.982 32.0075L0.745747 32.7708C1.74536 33.0616 2.7086 33.4251 3.65369 33.8249C2.90853 34.6065 2.5087 35.7151 2.6541 36.8783C2.7995 38.0597 3.5083 39.0593 4.45339 39.6227C5.2349 38.823 5.65292 37.6962 5.50752 36.5148C5.3803 35.4789 4.81689 34.5883 4.03537 33.9885L4.05354 34.0249ZM15.0856 42.0581C17.4665 41.5129 19.8838 41.1312 22.301 40.9313C22.2465 41.8945 22.5555 42.8578 23.2643 43.6211C24.0458 44.439 25.1363 44.8025 26.1904 44.7116C26.354 43.6575 26.0268 42.567 25.2453 41.731C24.8455 41.3129 24.3729 41.0222 23.864 40.8404C27.7171 40.6405 31.5701 40.8768 35.3141 41.5674L35.5504 40.2952C25.6815 38.4413 17.6119 40.2406 17.6119 40.2406C16.9213 40.3679 16.2306 40.4951 15.54 40.6405C16.685 36.8783 17.103 32.8799 16.7395 28.9359C16.4669 26.028 15.4673 22.7565 13.9951 19.5578C14.7766 19.1761 15.4309 18.5218 15.7944 17.6494C16.267 16.5408 16.1579 15.323 15.6127 14.3598C14.5404 14.6506 13.5953 15.4139 13.1228 16.5226C13.0137 16.7952 12.9228 17.0678 12.8865 17.3404C11.2326 14.2871 9.17882 11.4337 6.92515 9.21633L5.83468 10.325C8.65177 13.1057 11.1599 16.9224 12.8865 20.83C10.7237 19.794 8.25192 19.3578 5.85285 19.5578C5.98007 19.5396 6.08913 19.5214 6.19817 19.4851C6.19817 18.3582 5.67111 17.2677 4.72602 16.5408C3.76276 15.8138 2.56323 15.6138 1.49092 15.8865C1.49092 17.0133 2.01798 18.1038 2.96307 18.8308C3.67188 19.376 4.52608 19.6305 5.36212 19.5941C3.67187 19.794 2.01796 20.3029 0.527631 21.139L0.927478 21.8478C4.74418 19.7213 9.66954 19.794 13.3954 21.9932C14.3586 24.4286 15.0129 26.8458 15.2128 29.045C15.231 29.3176 15.2492 29.5721 15.2674 29.8447C15.0856 29.2631 14.7039 28.736 14.1587 28.3725C13.4135 27.8818 12.523 27.7909 11.7415 28.0454C11.796 28.8632 12.2322 29.6629 12.9592 30.1537C13.668 30.6262 14.5222 30.7352 15.2856 30.499C15.3764 32.48 15.2492 34.4611 14.9221 36.4058C14.7767 36.0059 14.5767 35.6061 14.3223 35.2426C13.5044 34.1521 12.2504 33.5523 10.9963 33.516C10.6692 34.7337 10.8691 36.0968 11.6869 37.2055C12.3776 38.1324 13.359 38.6958 14.4131 38.8594C13.668 41.8218 12.4503 44.6571 10.7964 47.2379L12.105 48.074C13.3227 46.1656 14.3041 44.13 15.0674 42.0218L15.0856 42.0581ZM27.2082 9.27086C26.9356 8.76196 26.4994 8.34394 25.9178 8.10767C25.1544 7.7987 24.3366 7.8714 23.6641 8.25307C23.864 8.99824 24.3911 9.63435 25.1544 9.94332C25.8814 10.2523 26.6629 10.1796 27.3172 9.85245C27.5535 11.1429 27.608 12.4696 27.4626 13.7782C26.1904 15.5957 24.7364 17.2677 23.1189 18.7581C23.446 18.1947 23.6459 17.5404 23.6823 16.8316C23.755 15.4503 23.1734 14.178 22.2101 13.342C21.156 14.069 20.4472 15.2685 20.3745 16.6498C20.3018 17.9584 20.8107 19.1397 21.683 19.994C20.011 21.3389 18.2117 22.5021 16.267 23.4472L16.8304 24.6103C22.3555 21.9205 26.8629 17.6131 29.9708 12.2333C30.8613 12.9422 32.0245 13.2511 33.224 12.9967C34.4417 12.7422 35.405 11.9244 35.9139 10.8884C35.0233 10.1432 33.8056 9.79792 32.5879 10.0705C31.7519 10.2523 31.043 10.6885 30.516 11.2883C32.0063 8.48934 33.1331 5.41781 33.842 2.14635L32.5879 1.87373C31.77 5.72678 30.3161 9.30721 28.3532 12.4514C28.3896 8.03497 26.354 3.60033 22.8826 0.801422L22.3737 1.41936C24.8273 3.40041 26.5175 6.25385 27.2082 9.28903V9.27086ZM20.3381 51.2727L20.9015 51.8543C22.2647 50.5457 23.6096 49.3825 25.009 48.3648C24.8091 48.7646 24.7001 49.219 24.7001 49.7097C24.7001 50.6729 25.1544 51.5453 25.8632 52.1088C26.5721 51.5635 27.0264 50.6911 27.0446 49.7279C27.0446 48.8918 26.6993 48.1285 26.154 47.5832C27.0446 46.9835 27.9533 46.4382 28.8803 45.9293C28.335 47.8559 28.3714 49.9823 29.0438 51.927L29.8072 51.6726C29.1165 49.637 29.1529 47.3651 29.9162 45.4023C31.8064 44.4754 33.8056 43.7484 35.9502 43.1668L35.7503 42.3853C29.8435 43.9665 25.0999 46.7108 20.3745 51.2909L20.3381 51.2727Z" fill="#F3CFB2"/>
<path d="M59.9231 34.5268L60.3774 33.9815C60.541 34.1633 60.8318 34.3087 61.2317 34.3087C61.577 34.3087 61.7769 34.1996 61.7769 34.0179C61.7769 33.8907 61.686 33.7998 61.4134 33.7634L60.9045 33.6726C60.3229 33.5817 60.0321 33.2364 60.0321 32.8184C60.0321 32.2004 60.6501 31.7642 61.4497 31.7642C61.995 31.7642 62.4675 31.9641 62.6493 32.2549L62.1586 32.7638C61.995 32.5457 61.7224 32.4185 61.4134 32.4185C61.1226 32.4185 60.959 32.5276 60.959 32.7093C60.959 32.8547 61.0499 32.9274 61.3952 32.9819L61.7951 33.0546C62.3948 33.1637 62.6675 33.4545 62.6675 33.8907C62.6675 34.5268 62.0132 34.9448 61.1408 34.9448C60.5774 34.9448 60.0866 34.7631 59.8867 34.5086L59.9231 34.5268Z" fill="#F3CFB2"/>
<path d="M63.776 33.8543V31.8551H64.1031C64.4485 31.8551 64.5757 31.8551 64.7392 31.8006V33.6544C64.7392 34.0179 64.8846 34.1633 65.1754 34.1633C65.6116 34.1633 65.9024 33.8543 65.9024 33.3273V31.8551H66.2296C66.5749 31.8551 66.7021 31.8551 66.8657 31.8006V34.9085H65.9024V34.3996C65.6843 34.7631 65.2845 34.9812 64.812 34.9812C64.1758 34.9812 63.7578 34.6177 63.7578 33.8725L63.776 33.8543Z" fill="#F3CFB2"/>
<path d="M67.9377 34.5268L68.3921 33.9815C68.5557 34.1633 68.8465 34.3087 69.2463 34.3087C69.5916 34.3087 69.7915 34.1996 69.7915 34.0179C69.7915 33.8907 69.7007 33.7998 69.428 33.7634L68.9191 33.6726C68.3376 33.5817 68.0468 33.2364 68.0468 32.8184C68.0468 32.2004 68.6647 31.7642 69.4644 31.7642C70.0096 31.7642 70.4822 31.9641 70.6639 32.2549L70.1732 32.7638C70.0096 32.5457 69.737 32.4185 69.428 32.4185C69.1372 32.4185 68.9737 32.5276 68.9737 32.7093C68.9737 32.8547 69.0646 32.9274 69.4099 32.9819L69.8097 33.0546C70.4095 33.1637 70.6821 33.4545 70.6821 33.8907C70.6821 34.5268 70.0278 34.9448 69.1554 34.9448C68.592 34.9448 68.1013 34.7631 67.9014 34.5086L67.9377 34.5268Z" fill="#F3CFB2"/>
<path d="M71.9929 33.7267V32.5817H71.4658V31.9456H71.5203C72.0111 31.8729 72.2837 31.5639 72.2837 31.0732V30.8914H72.32C72.6108 30.8914 72.7744 30.8914 72.9561 30.8369V31.8365H74.083V32.5635H72.9561V33.8539C72.9561 34.1084 73.0834 34.2538 73.2469 34.2538C73.4105 34.2538 73.5922 34.0902 73.6831 33.8721L74.3374 34.2719C74.1557 34.7081 73.7195 34.9444 73.2106 34.9444C72.4654 34.9444 71.9747 34.4537 71.9747 33.7085L71.9929 33.7267Z" fill="#F3CFB2"/>
<path d="M75.0625 34.1266C75.0625 33.4178 75.8077 33.2724 76.4256 33.1997C76.8073 33.1452 76.989 33.127 76.989 32.8544C76.989 32.6181 76.8436 32.4909 76.5165 32.4909C76.1893 32.4909 75.953 32.6181 75.844 32.8544L75.2079 32.4909C75.4442 32.0183 75.9894 31.782 76.6437 31.782C77.4434 31.782 77.9523 32.1455 77.9523 32.9816V34.9081H77.0254V34.4901C76.8436 34.8172 76.5347 34.9808 76.0803 34.9808C75.4442 34.9808 75.0625 34.6537 75.0625 34.1266ZM77.0072 33.7631V33.4359C76.9163 33.5813 76.7891 33.6177 76.5347 33.654C76.2984 33.6904 75.9712 33.7267 75.9712 34.0357C75.9712 34.2538 76.0985 34.381 76.3892 34.381C76.7346 34.381 76.989 34.1993 76.989 33.7631H77.0072Z" fill="#F3CFB2"/>
<path d="M79.1533 30.8736C79.1533 30.5646 79.3896 30.3284 79.7167 30.3284C80.0439 30.3284 80.262 30.5646 80.262 30.8736C80.262 31.1826 80.0257 31.4189 79.7167 31.4189C79.4078 31.4189 79.1533 31.1826 79.1533 30.8736ZM79.226 31.855H79.5532C79.844 31.855 80.0075 31.855 80.1893 31.8005V34.9084H79.226V31.855Z" fill="#F3CFB2"/>
<path d="M81.4967 31.8547H81.8238C82.1692 31.8547 82.2964 31.8547 82.4599 31.8002V32.3636C82.678 32.0001 83.0779 31.782 83.5504 31.782C84.2047 31.782 84.6046 32.1455 84.6046 32.8907V34.8899H83.6413V33.0906C83.6413 32.709 83.4777 32.5817 83.1869 32.5817C82.7326 32.5817 82.4418 32.8907 82.4418 33.4178V34.8899H81.4785V31.8366L81.4967 31.8547Z" fill="#F3CFB2"/>
<path d="M85.6768 34.1266C85.6768 33.4178 86.4219 33.2724 87.0399 33.1997C87.4215 33.1452 87.6033 33.127 87.6033 32.8544C87.6033 32.6181 87.4579 32.4909 87.1307 32.4909C86.8036 32.4909 86.5673 32.6181 86.4583 32.8544L85.8222 32.4909C86.0584 32.0183 86.6037 31.782 87.258 31.782C88.0576 31.782 88.5665 32.1455 88.5665 32.9816V34.9081H87.6396V34.4901C87.4579 34.8172 87.1489 34.9808 86.6945 34.9808C86.0584 34.9808 85.6768 34.6537 85.6768 34.1266ZM87.6215 33.7631V33.4359C87.5306 33.5813 87.4034 33.6177 87.1489 33.654C86.9126 33.6904 86.5855 33.7267 86.5855 34.0357C86.5855 34.2538 86.7127 34.381 87.0035 34.381C87.3488 34.381 87.6033 34.1993 87.6033 33.7631H87.6215Z" fill="#F3CFB2"/>
<path d="M90.8392 34.3451V34.8903H89.876V30.2739H90.2031C90.5485 30.2739 90.6757 30.2739 90.8392 30.2194V32.3822C91.0028 32.0369 91.3663 31.7643 91.8025 31.7643C92.584 31.7643 93.2747 32.4913 93.2747 33.3637C93.2747 34.236 92.5658 34.963 91.8025 34.963C91.3663 34.963 90.9846 34.6904 90.8392 34.3451ZM92.2932 33.3818C92.2932 32.9093 91.9661 32.5821 91.5481 32.5821C91.1664 32.5821 90.8211 32.9093 90.8211 33.3818C90.8211 33.8544 91.1664 34.1815 91.5481 34.1815C91.9661 34.1815 92.2932 33.8544 92.2932 33.3818Z" fill="#F3CFB2"/>
<path d="M94.3828 30.2739H94.71C95.0553 30.2739 95.1825 30.2739 95.3461 30.2194V34.8903H94.3828V30.2739Z" fill="#F3CFB2"/>
<path d="M96.4367 33.3814C96.4367 32.5272 97.2001 31.782 98.0543 31.782C98.9085 31.782 99.5992 32.4909 99.5992 33.5268H97.4C97.4364 33.9267 97.709 34.2538 98.2179 34.2538C98.5814 34.2538 98.7995 34.1084 98.9085 33.854L99.5628 34.2175C99.3265 34.6718 98.8722 34.9808 98.1452 34.9808C97.1456 34.9808 96.4004 34.272 96.4004 33.3996L96.4367 33.3814ZM97.4182 33.0361H98.6359C98.6177 32.6908 98.3996 32.4182 98.0361 32.4182C97.6545 32.4182 97.4545 32.6908 97.4 33.0361H97.4182Z" fill="#F3CFB2"/>
<path d="M59.9231 40.2335C59.9231 39.3793 60.6864 38.6341 61.5406 38.6341C62.3948 38.6341 63.0855 39.3429 63.0855 40.3789H60.8863C60.9227 40.7787 61.1953 41.1059 61.7042 41.1059C62.0677 41.1059 62.2858 40.9605 62.3948 40.706L63.0491 41.0695C62.8129 41.5239 62.3585 41.8329 61.6315 41.8329C60.6319 41.8329 59.8867 41.124 59.8867 40.2516L59.9231 40.2335ZM60.8863 39.8882H62.104C62.0859 39.5428 61.8678 39.2702 61.5043 39.2702C61.1226 39.2702 60.9227 39.5428 60.8682 39.8882H60.8863Z" fill="#F3CFB2"/>
<path d="M63.9766 40.2335C63.9766 39.3793 64.7581 38.6341 65.7577 38.6341C66.3029 38.6341 66.7755 38.8704 67.0481 39.3247L66.3938 39.8518C66.2121 39.5428 65.9758 39.3974 65.7032 39.3974C65.2851 39.3974 64.9762 39.7428 64.9762 40.2516C64.9762 40.7605 65.267 41.0695 65.7395 41.0695C66.0848 41.0695 66.3393 40.9241 66.4665 40.6515L67.1026 41.0695C66.83 41.5421 66.3575 41.8329 65.7214 41.8329C64.7581 41.8329 63.9948 41.124 63.9948 40.2516L63.9766 40.2335Z" fill="#F3CFB2"/>
<path d="M67.8477 40.2335C67.8477 39.3793 68.6292 38.6341 69.5561 38.6341C70.483 38.6341 71.2645 39.3793 71.2645 40.2335C71.2645 41.0877 70.483 41.8329 69.5561 41.8329C68.6292 41.8329 67.8477 41.0877 67.8477 40.2335ZM70.2649 40.2335C70.2649 39.7609 69.9559 39.4338 69.5379 39.4338C69.1199 39.4338 68.8109 39.7609 68.8109 40.2335C68.8109 40.706 69.1199 41.0332 69.5379 41.0332C69.9559 41.0332 70.2649 40.706 70.2649 40.2335Z" fill="#F3CFB2"/>
<path d="M72.4824 39.6695H74.3544V40.4328H72.4824V39.6695Z" fill="#F3CFB2"/>
<path d="M75.1904 38.7069H76.1719L76.9534 40.7061L77.7531 38.7069H78.6255L77.3532 41.7603H76.4808L75.2086 38.7069H75.1904Z" fill="#F3CFB2"/>
<path d="M79.4424 37.7246C79.4424 37.4156 79.6787 37.1793 80.0058 37.1793C80.3329 37.1793 80.551 37.4156 80.551 37.7246C80.551 38.0335 80.3148 38.2698 80.0058 38.2698C79.6968 38.2698 79.4424 38.0335 79.4424 37.7246ZM79.5151 38.706H79.8422C80.133 38.706 80.2966 38.706 80.4783 38.6515V41.7594H79.5151V38.706Z" fill="#F3CFB2"/>
<path d="M81.7695 37.1435H82.0967C82.442 37.1435 82.5692 37.1435 82.7328 37.089V41.7599H81.7695V37.1435Z" fill="#F3CFB2"/>
<path d="M84.0225 37.1435H84.3496C84.6949 37.1435 84.8221 37.1435 84.9857 37.089V41.7599H84.0225V37.1435Z" fill="#F3CFB2"/>
<path d="M86.0771 40.9786C86.0771 40.2698 86.8223 40.1244 87.4403 40.0517C87.8219 39.9972 88.0037 39.979 88.0037 39.7064C88.0037 39.4701 87.8583 39.3429 87.5311 39.3429C87.204 39.3429 86.9677 39.4701 86.8586 39.7064L86.2225 39.3429C86.4588 38.8704 87.0041 38.6341 87.6583 38.6341C88.458 38.6341 88.9669 38.9976 88.9669 39.8336V41.7602H88.04V41.3421C87.8583 41.6693 87.5493 41.8329 87.0949 41.8329C86.4588 41.8329 86.0771 41.5057 86.0771 40.9786ZM88.0218 40.6333V40.3062C87.931 40.4516 87.8037 40.4879 87.5493 40.5243C87.313 40.5606 86.9859 40.597 86.9859 40.9059C86.9859 41.124 87.1131 41.2513 87.4039 41.2513C87.7492 41.2513 88.0037 41.0695 88.0037 40.6333H88.0218Z" fill="#F3CFB2"/>
<path d="M89.9836 41.3967L90.438 40.8514C90.6015 41.0332 90.8923 41.1786 91.2922 41.1786C91.6375 41.1786 91.8374 41.0695 91.8374 40.8878C91.8374 40.7605 91.7466 40.6697 91.4739 40.6333L90.965 40.5424C90.3835 40.4516 90.0927 40.1062 90.0927 39.6882C90.0927 39.0703 90.7106 38.6341 91.5103 38.6341C92.0555 38.6341 92.5281 38.834 92.7098 39.1248L92.2191 39.6337C92.0555 39.4156 91.7829 39.2884 91.4739 39.2884C91.1831 39.2884 91.0196 39.3974 91.0196 39.5792C91.0196 39.7246 91.1105 39.7973 91.4558 39.8518L91.8556 39.9245C92.4554 40.0335 92.728 40.3243 92.728 40.7605C92.728 41.3967 92.0737 41.8147 91.2013 41.8147C90.6379 41.8147 90.1472 41.6329 89.9473 41.3785L89.9836 41.3967Z" fill="#F3CFB2"/>
<path d="M61.087 13.4436V14.9339L61.9231 16.0244L63.1953 16.4424L64.4857 16.0244L65.0673 15.2429H66.394L65.1945 16.8786L63.1953 17.5329L61.2142 16.8786L59.9238 15.2429V13.1346L61.2142 11.4989L63.1953 10.8446L65.1945 11.4989L66.394 13.1346H65.0673L64.4857 12.3531L63.1953 11.9351L61.9231 12.3531L61.087 13.4436Z" fill="#F3CFB2"/>
<path d="M72.5544 16.2788H69.4465L69.0103 17.4056H67.7744L70.5188 10.9899H71.4639L74.2083 17.4056H72.9724L72.5362 16.2788H72.5544ZM69.8282 15.2973H72.1545L70.9914 12.2985L69.8282 15.2973Z" fill="#F3CFB2"/>
<path d="M79.4794 14.0068L80.3155 15.0791V15.9878L79.4067 17.0783L78.0254 17.5508L76.5533 17.0783L75.6445 15.5698H76.8441L77.1894 16.2423L78.0073 16.5876L78.7888 16.2968L79.1886 15.7879V15.3699L78.7888 14.8791L76.6078 14.1885L75.8626 13.2979V12.4437L76.5533 11.3896L77.9164 10.9171L79.3158 11.3896L80.0428 12.6618H78.8796L78.6615 12.1893L77.9164 11.9167L77.2258 12.1893L76.9713 12.6618V12.9526L77.2076 13.3343L79.4612 14.0976L79.4794 14.0068Z" fill="#F3CFB2"/>
<path d="M86.5671 16.2788H83.4592L83.023 17.4056H81.7871L84.5315 10.9899H85.4766L88.221 17.4056H86.9851L86.5489 16.2788H86.5671ZM83.859 15.2973H86.1854L85.0222 12.2985L83.859 15.2973Z" fill="#F3CFB2"/>
<path d="M63.7392 22.5311L64.5752 23.6034V24.5122L63.6665 25.6026L62.2852 26.0752L60.813 25.6026L59.9043 24.0941H61.1038L61.4491 24.7666L62.267 25.1119L63.0485 24.8211L63.4484 24.3122V23.8942L63.0485 23.4035L60.8676 22.7129L60.1224 21.8223V20.9681L60.813 19.914L62.1761 19.4414L63.5756 19.914L64.3026 21.1862H63.1394L62.9213 20.7136L62.1761 20.441L61.4855 20.7136L61.231 21.1862V21.477L61.4673 21.8586L63.721 22.622L63.7392 22.5311Z" fill="#F3CFB2"/>
<path d="M66.7008 19.4954H71.0082V20.5313H67.864V22.1489H70.9355V23.1848H67.864V24.9114H71.0627V25.9474H66.6826V19.5317L66.7008 19.4954Z" fill="#F3CFB2"/>
<path d="M73.3535 19.4954H74.5167V24.8933H77.4792V25.9292H73.3535V19.5135V19.4954Z" fill="#F3CFB2"/>
<path d="M81.6952 25.9111H80.6411L78.1875 19.4954H79.3688L81.1863 24.5116L83.0038 19.4954H84.1852L81.7316 25.9111H81.6952Z" fill="#F3CFB2"/>
<path d="M89.6198 24.8028H86.5119L86.0757 25.9296H84.8398L87.5842 19.5139H88.5293L91.2737 25.9296H90.0378L89.6016 24.8028H89.6198ZM86.8936 23.8213H89.22L88.0568 20.8225L86.8936 23.8213Z" fill="#F3CFB2"/>
<path d="M95.6001 22.6582H99.2351V23.6941L97.9992 25.4025L96 26.0568L94.0189 25.4025L92.7285 23.7668V21.6585L94.0189 20.0228L96 19.3685L97.9992 20.0228L99.1987 21.6585H97.872L97.2904 20.877L96 20.459L94.7277 20.877L93.8917 21.9675V23.4579L94.7277 24.5483L96 24.9845L97.2904 24.5483L97.9083 23.6941H95.6001V22.6582Z" fill="#F3CFB2"/>
<path d="M104.141 22.6582H107.776V23.6941L106.54 25.4025L104.541 26.0568L102.56 25.4025L101.27 23.7668V21.6585L102.56 20.0228L104.541 19.3685L106.54 20.0228L107.74 21.6585H106.413L105.831 20.877L104.541 20.459L103.269 20.877L102.433 21.9675V23.4579L103.269 24.5483L104.541 24.9845L105.831 24.5483L106.449 23.6941H104.141V22.6582Z" fill="#F3CFB2"/>
<path d="M111.176 19.4954V25.9111H110.013V19.4954H111.176Z" fill="#F3CFB2"/>
<path d="M116.737 19.3685L118.718 20.0228L120.009 21.6585V23.7668L118.718 25.4025L116.737 26.0568L114.756 25.4025L113.466 23.7668V21.6585L114.756 20.0228L116.737 19.3685ZM118.864 23.4579V21.9675L118.028 20.877L116.755 20.459L115.483 20.877L114.647 21.9675V23.4579L115.483 24.5483L116.755 24.9664L118.028 24.5483L118.864 23.4579Z" fill="#F3CFB2"/>
</svg>
